/* XPM */
static char *povview[] = {
/* columns rows colors chars-per-pixel */
"24 24 106 2",
"   c #103710AB121C",
".  c #3CD6320317B0",
"X  c #23FA249C25F6",
"o  c #2E3C2E3B2DDA",
"O  c #2E312FD222CE",
"+  c #2FB1322A2F74",
"@  c #3BA033E22B21",
"#  c #3F342EE53E6D",
"$  c #2DF830C72FFD",
"%  c #341133F23422",
"&  c #3D6F37FD349F",
"*  c #357136B93A44",
"=  c #36993AEB3CB2",
"-  c #3AE13AD23AEA",
";  c #4E8B38480E2E",
":  c #64CE343C0F74",
">  c #654534C513FF",
",  c #433A3B9E3C20",
"<  c #4D2747BA3ECE",
"1  c #37463AC44140",
"2  c #3C993E044162",
"3  c #411942A643B2",
"4  c #4A0144AA4537",
"5  c #4D2349D9465C",
"6  c #42E845544ACB",
"7  c #4D2F47094881",
"8  c #4C3E4B9B4C10",
"9  c #4F014F2650DB",
"0  c #5B084F8450B7",
"q  c #520F528F548E",
"w  c #5CFF53B85254",
"e  c #52C854C85AFF",
"r  c #57F657CB5A07",
"t  c #5B675AD65E0B",
"y  c #763B76715AF5",
"u  c #5CEA5E4C629C",
"i  c #5FC661B266D3",
"p  c #6340633C647E",
"a  c #649B66ED6B80",
"s  c #6CDD62696C0C",
"d  c #66C96B796C9C",
"f  c #6A306CD46D17",
"g  c #74D869FE6AE7",
"h  c #6EE572466AF3",
"j  c #6B516DE770D9",
"k  c #6E57743F742C",
"l  c #74CC7693763A",
"z  c #76117BC0771D",
"x  c #72FE74B97906",
"c  c #773F78FC7B36",
"v  c #7AB07BB57C49",
"b  c #84285B8558F6",
"n  c #9AB26E7F6041",
"m  c #7E9D810E7ECE",
"M  c #8C0B89C36C7A",
"N  c #D190AB5D7532",
"B  c #77F27DD781D9",
"V  c #7E107FC981E3",
"C  c #7F6F819E81F6",
"Z  c #83E685028430",
"A  c #865D8B1A861E",
"S  c #8840882987FC",
"D  c #83CA84F08ABC",
"F  c #872489AE8A7D",
"G  c #8A898ABB8B45",
"H  c #91138FF58FE8",
"J  c #871D8BCC9152",
"K  c #8EA18E8B915E",
"L  c #914A8EE89147",
"P  c #9D6C8D539A54",
"I  c #8FDF925292BC",
"U  c #919C928D94E6",
"Y  c #98EF9A679808",
"T  c #958A973F9A56",
"R  c #9A1C97839CBC",
"E  c #95A69AB49CAB",
"W  c #9B329CCF9D2B",
"Q  c #A66180719805",
"!  c #A6CF81639957",
"~  c #9C549E2EA12E",
"^  c #A5449599A2F5",
"/  c #ACD89DEFADC5",
"(  c #9AF6A197A1D1",
")  c #A358A563A5EB",
"_  c #A713A7EDA92F",
"`  c #A7A6A91AAE5C",
"'  c #AB27AB4CAB64",
"]  c #AC2CACE8B160",
"[  c #AFB3B238B47A",
"{  c #B302B312B326",
"}  c #B76FB882B7A4",
"|  c #B433B63DB9AA",
" . c #B7DDB966BB20",
".. c #BAE0BAFDBAF6",
"X. c #BFADBFC3C0C4",
"o. c #C32FC34FC388",
"O. c #C82DC8DBC7EF",
"+. c #C898CA09C3C8",
"@. c #C4ACC719C9A0",
"#. c #CB1DCB78CBBD",
"$. c #CE23CF5FD1E2",
"%. c #CF00D17DD26A",
"&. c #D1A1D388D580",
"*. c #D569D7DADA84",
"=. c #D6E8DA23DD5F",
"-. c #D99BDD84E15E",
/* pixels */
"Z Z S S S K ~ ) _ ' _ ^ U T T E E E E ( ( ( ) ' ",
"Z G S S W ] R x p s g L ' W E E ( ( ( ( ( ( _ _ ",
"S S G ~ ] u % * 6 7 1 % 5 Y ( E ( E ( ~ _ _ _ ' ",
"S G ~ ` 8 % p D W ) ~ Z 5 - U ( ~ ( ( ) _ _ ' ] ",
"S U ] r * l  .&.#.` W ) W p - T ( ( ` ) _ ' { ' ",
"S ) I % p { -.=.| Z v c C U < 8 ~ ~ ' ' ' ' ' ' ",
"G ' w - D $.=.@.z f d a a B d O M ` ' ' ' ' ' { ",
"G ' , q S $.=._ f l z c c C C $ f ) ' ' ' ' ' { ",
"G { 3 q y +.*...M J R ~ ~ ~ W % i ) ' ' { { { { ",
"I ` , 4 j ..=.=.] ] } X...X.T o u W ' ' ' { { { ",
"I ~ t + f W =.-.&.@.O.O.O.$.v o d ) ' ] { { { } ",
"U U H X q M $.*.$.@.O.O.%.| * 1 l ~ { { { } } | ",
"L G U p o L o.#.O.#.O.$.o.9 X r A ) [ { { } } ..",
"U U G F 0 % v ] X.X. .T -   6 j F _ { | } ..} ..",
"E T K Z Z t $ * 9 q - o 1 6 6 J f P } } ..} ....",
"E E E G Z V x u 7 3 7 u a k = 4 b ! ! ..} ......",
"E ~ ( E I C m m D D C v v c d % > N ! ^ X.X.X.X.",
"~ ( ( ( ( E G C B M v Z G G C h . > N ! ^ X.X.X.",
"E ( ( ( _ ( ( W Y U Y W ) ` ~ Z f @ > N Q _ X.X.",
"( ( ( ) _ _ ' ` ' ' ' ' { { { ) F y @ > N n Y +.",
"W W ) _ _ _ ' ' ' { { { { } } { ) G l , : ; p +.",
") _ _ _ _ ' ' { { { { { } } } ..} _ G c , o S X.",
") ' _ _ ' { { { ' { } } } } ......} ' L V Z ) o.",
") ' _ ' ' ' ' { { } } } } ......X.X.X.' L L { o."
};
