/* XPM */
static char *povrender[] = {
/* columns rows colors chars-per-pixel */
"24 24 124 2",
"   c #6DC763555D07",
".  c #6D7161B863EF",
"X  c #6FD0690E6418",
"o  c #704466296020",
"O  c #73F06BBE6507",
"+  c #742C67596973",
"@  c #71D269E06BCB",
"#  c #7B126F926C03",
"$  c #764E72EF6651",
"%  c #7B5C74F064F6",
"&  c #760477A16D26",
"*  c #7D0174CE6BED",
"=  c #774C7A6A6859",
"-  c #7C697AC66D53",
";  c #788E6D1E719F",
":  c #7CB4744671FE",
">  c #7EEE7A907129",
",  c #7B337A9479A5",
"<  c #82BB7D0B6DF2",
"1  c #820E76B77467",
"2  c #834B7B8473DD",
"3  c #88AA7F6E750B",
"4  c #848D7F31797A",
"5  c #887A7E847871",
"6  c #7E5981AC6CED",
"7  c #870580F06E96",
"8  c #8A8183936D36",
"9  c #84ED832F74EA",
"0  c #8A5882DC73AB",
"q  c #86DB89DB7416",
"w  c #8A9C8D7D753A",
"e  c #84C582FA7BAA",
"r  c #8B5684CF7C35",
"t  c #8C188B987B71",
"y  c #91F58B4E75F0",
"u  c #94B48E017C00",
"i  c #8E5992497CEF",
"p  c #8ACC7F79850E",
"a  c #86D1869D83A0",
"s  c #8B1A852681E6",
"d  c #8758882385EB",
"f  c #8D7A8C2D845A",
"g  c #8DDF8E228A39",
"h  c #92568BEF8295",
"j  c #93028CA789D6",
"k  c #8F90926985B6",
"l  c #8FE791CE893D",
"z  c #93DF94BF8496",
"x  c #9D95955C86B1",
"c  c #98819A6685C5",
"v  c #941A92B68B57",
"b  c #99AD953B8E42",
"n  c #973B98EF8CF1",
"m  c #9A399AE08CF6",
"M  c #9533956093C2",
"N  c #9A3E94609157",
"B  c #978B98F291E3",
"V  c #9BAE9B62952C",
"C  c #98D2976899A6",
"Z  c #9CF99CFF9BFC",
"A  c #A2A09D9F9658",
"S  c #A26F9D9D9C4B",
"D  c #9F32A12A9ABE",
"F  c #A1B3A3FD94F2",
"G  c #A47CA41D9BBD",
"H  c #A967A36D9D12",
"J  c #A65EA9389C86",
"K  c #AC42AE759FD3",
"L  c #B0B6AA519A73",
"P  c #A3F6A3C2A35B",
"I  c #ABAEA51DA3C4",
"U  c #AD45AB68A453",
"Y  c #AD8BA6C4AB15",
"T  c #ACCFABEFABA1",
"R  c #B253ABE8A4FA",
"E  c #B29AAD39ACD6",
"W  c #AF44B2C8A781",
"Q  c #B03EB35AA595",
"!  c #B986B377A7B7",
"~  c #B3FAB2BEAD32",
"^  c #BC4CB44AAEEE",
"/  c #B709B985ACFA",
"(  c #B9FBBAE8ADCB",
")  c #AD27ABE5B095",
"_  c #B408AD22B18F",
"`  c #B006B0F1B0B1",
"'  c #B4E2B4FFB458",
"]  c #BA73B4F1B3B3",
"[  c #B823B9A1B823",
"{  c #BC31BB29B553",
"}  c #B8EBB7B2B913",
"|  c #B82DB911B9AD",
" . c #BC37BBF1BB78",
".. c #C251BBAFABFF",
"X. c #C15DB9C6B54C",
"o. c #C2E7BED1B92C",
"O. c #BE9EC1C0B4EA",
"+. c #C00AC04AC020",
"@. c #C308C2AFBBA0",
"#. c #C972C40FBD43",
"$. c #C690C8CABF83",
"%. c #D0B5C88FBF59",
"&. c #BF21BE9EC16C",
"*. c #C1C5BF4DC0F8",
"=. c #C3EBC405C41E",
"-. c #C847CAF1C795",
";. c #CD81CCA6C6ED",
":. c #C5F0C59DCA73",
">. c #C889C751C8AF",
",. c #C7B2CA75C880",
"<. c #CC67CC3DCD57",
"1. c #D196D012CE30",
"2. c #CF1BD243C595",
"3. c #D04BD080CB44",
"4. c #D198D300CA26",
"5. c #CEBDCE24D203",
"6. c #D1B8CFF9D7D3",
"7. c #CFD3D0D1D3E5",
"8. c #D3E6D3FDD3F9",
"9. c #D746D8B4D64F",
"0. c #D85BD993D837",
"q. c #D4EDD67DD8F6",
"w. c #D8B8D7B9D8C9",
"e. c #DB47DBB3DBFE",
/* pixels */
"C C Z Z V V S H I I ~ I H ] U U T ' ' |  . .'  .",
"C C C Z S H I R U e { b N o.j A  .) '  .' | }  .",
"C M C V S R A H I o S 5 h H : E T g [ | ' ' }  .",
"M M Z T E X.j 2 h # 2 * : r 5 I a M &.P ' ' | &.",
"C Z P T j h r O O O O O * 1 2 5 a T Z a  .+.&.+.",
"P P Y T b O * o   O 2 * 5 r 2 2 a d , D  . .+.=.",
"Z G C b s ; . . 5 A R ^ ( R K H k e l P l B O.,.",
"Y T m < @ + + s I E ~ ! ~ { @.! z k z 9 q U @.2.",
"Y E U r 1 . p E ] X.#.{ ( @.K i i i c m J / W $.",
"P j $ O + ; S I X.o.F z z c i i i k n n 6 - D @.",
"_ _ A > + 1 I ^ o.A 0 7 8 w q 6 = F J n G W ' 3.",
"I b 4 < # 1 X.%.^ r < z c q 6 6 n O.K l B V D $.",
"S N j 5 < x ..L u 9 7 D F 6 q D O.2.W n g l W ,.",
"} X.H 9 7 u u y i q 9 s q = l O.O.-.U D V P  .<.",
"Y s 2 9 8 8 8 < % % r e 6 D O.,.3.O.D v a g Y ,.",
"S Z ~ m 7 0 7 % < b R T | +.:.,.;.~ V Z D ` &.7.",
"_ o.H 9 5 5 5 z U @.@.o.&.=.<.<.' D l M Z | 5.7.",
"X.E h b H u r b H { #.;.<.5.+.) D D M Z Z ' 5.:.",
"_ ] '  .m 9 v h z m D J ~ J G G M M Z Z <.8.8.8.",
"} } ~ T l J G t D n n V F J n B C v P Z =.<.8.q.",
"` } | ` ' { v s P a D M l J d V B P <.<.8.<.8.9.",
"| |  .&. .[ D ~ ) , T g g ` d ` ` T <.<.8.8.9.9.",
"' ' | &.&.=.=.&.' ) &.P ) :.Y :.7.<.8.8.w.8.9.9.",
"| ' | | &.=.:.&.5.<.:.&.<.5.5.5.7.3.8.w.e.8.w.w."
};
